<?xml version="1.0" standalone="no"?>
<!DOCTYPE svg PUBLIC "-//W3C//DTD SVG 20010904//EN"
 "http://www.w3.org/TR/2001/REC-SVG-20010904/DTD/svg10.dtd">
<svg version="1.0" xmlns="http://www.w3.org/2000/svg"
 width="128.000000pt" height="69.000000pt" viewBox="0 0 128.000000 69.000000"
 preserveAspectRatio="xMidYMid meet">

<g transform="translate(0.000000,69.000000) scale(0.100000,-0.100000)"
fill="#000000" stroke="none">
<path d="M569 612 c-15 -10 -25 -25 -23 -35 4 -30 11 -30 26 0 10 21 21 28 42
28 25 -1 26 0 10 12 -23 16 -24 16 -55 -5z"/>
<path d="M651 564 c0 -11 3 -14 6 -6 3 7 2 16 -1 19 -3 4 -6 -2 -5 -13z"/>
<path d="M563 542 c-8 -5 -3 -12 17 -19 18 -7 32 -7 36 -2 3 5 -4 9 -16 9 -12
0 -18 5 -15 10 7 12 -5 13 -22 2z"/>
<path d="M460 432 c0 -11 9 -30 21 -43 11 -13 18 -18 14 -11 -4 7 -2 18 3 25
7 8 3 17 -14 30 -23 17 -24 17 -24 -1z"/>
<path d="M624 396 c-18 -8 -35 -19 -38 -25 -8 -12 35 4 69 26 25 17 9 16 -31
-1z"/>
</g>
</svg>
